<?xml version="1.0" standalone="no"?>
<!DOCTYPE svg PUBLIC "-//W3C//DTD SVG 20010904//EN" "http://www.w3.org/TR/2001/REC-SVG-20010904/DTD/svg10.dtd">
<svg version="1.0" xmlns="http://www.w3.org/2000/svg" width="500.000000pt" height="500.000000pt" viewBox="0 0 500.000000 500.000000" preserveAspectRatio="xMidYMid meet">
    <metadata>Created by potrace 1.14, written by Peter Selinger 2001-2017</metadata>
    <g transform="translate(0.000000,500.000000) scale(0.100000,-0.100000)"
    fill="#000000" stroke="none">
        <path d="M3877 2133 c-8 -10 -20 -38 -27 -63 -6 -25 -13 -53 -16 -62 -4 -12
        -15 -18 -35 -18 -16 0 -68 -7 -117 -15 -87 -15 -88 -15 -198 13 -91 23 -126
        28 -198 25 -49 -3 -101 0 -117 6 -22 7 -32 7 -43 -4 -11 -12 -26 -12 -96 -1
        -55 9 -136 12 -239 9 -86 -2 -178 -4 -206 -4 -109 1 -577 -97 -672 -141 -23
        -10 -47 -26 -53 -34 -7 -7 -18 -14 -24 -14 -17 0 -93 -55 -118 -85 -37 -45
        -82 -85 -94 -85 -15 0 -55 -60 -95 -143 l-32 -67 -24 22 c-12 12 -24 20 -26
        17 -1 -2 -12 -22 -22 -44 -28 -56 -39 -65 -80 -65 -22 0 -34 -4 -30 -10 3 -5
        12 -10 20 -10 8 0 25 -4 39 -9 l25 -10 -30 -55 c-24 -44 -37 -57 -67 -67 -48
        -15 -66 -31 -32 -29 43 4 50 1 50 -20 0 -19 -4 -20 -37 -14 -21 4 -44 11 -51
        17 -11 9 -13 5 -10 -19 3 -27 6 -29 50 -32 l46 -3 7 -85 c7 -80 9 -84 31 -84
        19 0 24 -5 24 -26 0 -17 4 -23 13 -18 9 6 9 4 -1 -8 -10 -13 -10 -17 0 -21 7
        -3 -14 -6 -48 -6 -33 -1 -103 -3 -155 -6 -52 -2 -78 -1 -59 3 21 4 39 16 46
        29 6 13 14 20 17 16 4 -3 7 -1 7 5 0 8 -23 13 -62 14 -51 1 -55 2 -20 5 35 3
        45 9 53 29 5 14 7 30 4 34 -3 5 -7 39 -9 77 -3 58 -7 70 -30 88 -14 11 -26 26
        -26 33 0 7 -8 12 -17 12 -15 0 -16 2 -3 10 11 7 11 10 2 10 -7 0 -11 4 -8 8 3
        4 -8 13 -24 19 -27 10 -28 9 -26 -18 1 -18 -3 -29 -11 -29 -13 0 -18 -18 -14
        -54 0 -10 -4 -25 -10 -32 -7 -8 -8 -40 -4 -92 7 -72 5 -81 -11 -91 -18 -10
        -18 -10 1 -11 16 0 20 -8 22 -38 l2 -39 -407 -17 c-224 -10 -418 -19 -432 -21
        -14 -2 -58 -4 -97 -4 l-73 -1 0 -405 0 -405 2500 0 2500 0 0 526 0 526 -87 -6
        -88 -7 58 26 c32 14 62 23 67 20 6 -4 10 -1 10 4 0 6 9 11 20 11 13 0 20 7 20
        20 0 11 -3 19 -7 19 -5 -1 -36 -1 -70 0 -49 1 -63 4 -63 16 0 8 -7 15 -16 15
        -8 0 -12 5 -9 10 4 6 10 8 15 5 13 -8 0 239 -13 251 -4 4 -7 -1 -7 -10 0 -10
        -6 -16 -12 -13 -15 4 -18 32 -7 62 4 13 -1 34 -14 58 -19 33 -20 41 -8 60 8
        12 16 34 17 48 4 30 17 66 70 194 43 105 56 181 30 191 -33 13 -88 -9 -182
        -71 -112 -74 -141 -83 -186 -59 -18 9 -69 22 -113 29 -44 7 -105 20 -135 29
        -30 9 -80 16 -111 16 l-57 0 -51 70 c-28 39 -65 79 -83 90 -41 25 -90 26 -111
        3z m238 -593 c3 -6 3 -20 -1 -32 -6 -21 -7 -21 -20 -3 -8 10 -14 25 -14 32 0
        15 26 18 35 3z m82 -36 c7 -19 -30 -59 -46 -50 -8 5 -6 16 6 37 19 33 31 36
        40 13z m578 -255 c11 -17 -1 -21 -15 -4 -8 9 -8 15 -2 15 6 0 14 -5 17 -11z
        m32 -11 c-3 -8 -6 -5 -6 6 -1 11 2 17 5 13 3 -3 4 -12 1 -19z m16 -33 c1 -5
        -5 -11 -14 -13 -9 -2 -16 4 -16 13 0 17 27 17 30 0z m102 -105 c3 -5 1 -10 -4
        -10 -6 0 -11 5 -11 10 0 6 2 10 4 10 3 0 8 -4 11 -10z m-3552 -110 c3 -11 1
        -20 -4 -20 -5 0 -9 9 -9 20 0 11 2 20 4 20 2 0 6 -9 9 -20z"/>
        <path d="M800 2022 c0 -4 9 -8 20 -9 11 -1 18 2 15 8 -7 11 -35 12 -35 1z"/>
        <path d="M624 2007 c-8 -21 2 -35 16 -21 5 5 6 15 0 24 -8 12 -10 12 -16 -3z"/>
        <path d="M771 2008 c0 -9 -7 -23 -13 -30 -16 -16 -21 -38 -10 -38 14 0 34 46
        29 66 -4 15 -5 16 -6 2z"/>
        <path d="M794 1987 c-3 -9 -4 -24 0 -32 3 -9 0 -15 -9 -15 -9 0 -15 -9 -14
        -22 l0 -23 16 23 c8 12 22 22 29 22 16 0 13 35 -4 52 -9 9 -13 7 -18 -5z"/>
        <path d="M720 1917 c0 -17 5 -27 15 -27 19 0 19 9 0 34 -14 19 -15 19 -15 -7z"/>
        <path d="M708 1773 c7 -3 16 -2 19 1 4 3 -2 6 -13 5 -11 0 -14 -3 -6 -6z"/>
        <path d="M865 1720 c0 -16 6 -35 13 -41 10 -10 12 -7 12 18 0 17 -6 35 -12 41
        -10 8 -13 3 -13 -18z"/>
        <path d="M325 1610 c3 -5 8 -10 11 -10 2 0 4 5 4 10 0 6 -5 10 -11 10 -5 0 -7
        -4 -4 -10z"/>
        <path d="M320 1555 c0 -8 2 -15 4 -15 2 0 6 7 10 15 3 8 1 15 -4 15 -6 0 -10
        -7 -10 -15z"/>
        <path d="M825 1460 c-10 -11 -15 -23 -12 -27 8 -7 47 25 47 39 0 14 -16 9 -35
        -12z"/>
        <path d="M876 1414 c-11 -29 -6 -62 14 -85 23 -29 27 -8 4 26 -15 23 -15 24 9
        30 14 4 28 14 31 22 4 11 2 13 -9 10 -8 -4 -17 -2 -20 3 -9 15 -22 12 -29 -6z"/>
        <path d="M1340 1410 c0 -5 10 -10 23 -10 18 0 19 2 7 10 -19 13 -30 13 -30 0z"/>
        <path d="M861 1150 c-1 -18 16 -46 23 -40 2 3 -2 16 -9 30 -8 15 -14 19 -14
        10z"/>
        <path d="M897 1082 c3 -12 9 -25 14 -28 5 -3 9 -20 9 -37 0 -24 -3 -28 -10
        -17 -5 8 -10 11 -10 5 -1 -24 -20 23 -20 48 0 50 -23 24 -40 -46 -9 -37 -19
        -70 -23 -73 -4 -4 7 -17 24 -30 25 -18 36 -21 62 -13 18 5 34 9 36 9 2 0 1 6
        -2 14 -4 9 1 17 11 19 12 3 11 5 -5 6 -28 1 -30 25 -5 43 27 19 20 54 -16 91
        -27 27 -30 28 -25 9z"/>
        <path d="M717 942 c-19 -20 -14 -32 14 -32 24 0 31 14 16 34 -12 16 -14 16
        -30 -2z"/>
        <path d="M1330 926 c0 -24 12 -46 21 -40 15 9 10 54 -6 54 -8 0 -15 -6 -15
        -14z"/>
        <path d="M145 894 c-141 -25 -154 -29 -142 -41 8 -7 294 45 317 58 25 14 -22
        9 -175 -17z"/>
    </g>
</svg>